<svg xmlns="http://www.w3.org/2000/svg" xmlns:xlink="http://www.w3.org/1999/xlink" width="680" zoomAndPan="magnify" viewBox="0 0 510 285.749983" height="381" preserveAspectRatio="xMidYMid meet" version="1.0"><defs><g/><clipPath id="ac0997eb9b"><path d="M 0.222656 46.761719 L 509.777344 46.761719 L 509.777344 246.765625 L 0.222656 246.765625 Z M 0.222656 46.761719 " clip-rule="nonzero"/></clipPath><clipPath id="87e38edff5"><path d="M 21.203125 46.761719 L 488.796875 46.761719 C 500.382812 46.761719 509.777344 56.15625 509.777344 67.742188 L 509.777344 225.785156 C 509.777344 237.375 500.382812 246.765625 488.796875 246.765625 L 21.203125 246.765625 C 9.617188 246.765625 0.222656 237.375 0.222656 225.785156 L 0.222656 67.742188 C 0.222656 56.15625 9.617188 46.761719 21.203125 46.761719 Z M 21.203125 46.761719 " clip-rule="nonzero"/></clipPath><clipPath id="490e2bf74a"><path d="M 0.222656 0.761719 L 509.777344 0.761719 L 509.777344 200.765625 L 0.222656 200.765625 Z M 0.222656 0.761719 " clip-rule="nonzero"/></clipPath><clipPath id="474451b949"><path d="M 21.203125 0.761719 L 488.796875 0.761719 C 500.382812 0.761719 509.777344 10.15625 509.777344 21.742188 L 509.777344 179.785156 C 509.777344 191.375 500.382812 200.765625 488.796875 200.765625 L 21.203125 200.765625 C 9.617188 200.765625 0.222656 191.375 0.222656 179.785156 L 0.222656 21.742188 C 0.222656 10.15625 9.617188 0.761719 21.203125 0.761719 Z M 21.203125 0.761719 " clip-rule="nonzero"/></clipPath><clipPath id="fe118b4e25"><rect x="0" width="510" y="0" height="201"/></clipPath><clipPath id="d9dd755f51"><path d="M 3 0.183594 L 139 0.183594 L 139 99 L 3 99 Z M 3 0.183594 " clip-rule="nonzero"/></clipPath><clipPath id="e2f0a09cc2"><path d="M 189 0.183594 L 295 0.183594 L 295 102 L 189 102 Z M 189 0.183594 " clip-rule="nonzero"/></clipPath><clipPath id="b36190b6c1"><rect x="0" width="300" y="0" height="149"/></clipPath></defs><g clip-path="url(#ac0997eb9b)"><g clip-path="url(#87e38edff5)"><g transform="matrix(1, 0, 0, 1, 0.000000000000000028, 46)"><g clip-path="url(#fe118b4e25)"><g clip-path="url(#490e2bf74a)"><g clip-path="url(#474451b949)"><path fill="#00aaff" d="M 0.222656 0.761719 L 509.613281 0.761719 L 509.613281 200.765625 L 0.222656 200.765625 Z M 0.222656 0.761719 " fill-opacity="1" fill-rule="nonzero"/></g></g></g></g></g></g><g transform="matrix(1, 0, 0, 1, 106, 66)"><g clip-path="url(#b36190b6c1)"><g clip-path="url(#d9dd755f51)"><g fill="#ffffff" fill-opacity="1"><g transform="translate(0.338519, 98.312771)"><g><path d="M 88.046875 0 L 88.046875 -11.09375 L 94.625 -11.09375 C 97.539062 -11.09375 99.679688 -11.285156 101.046875 -11.671875 C 102.410156 -12.066406 103.285156 -12.894531 103.671875 -14.15625 C 104.054688 -15.425781 104.25 -17.375 104.25 -20 L 104.25 -83.078125 L 72.859375 0 L 63.21875 0 L 33.734375 -84.546875 L 33.734375 -20 C 33.734375 -17.375 33.925781 -15.425781 34.3125 -14.15625 C 34.695312 -12.894531 35.59375 -12.066406 37 -11.671875 C 38.414062 -11.285156 40.535156 -11.09375 43.359375 -11.09375 L 49.0625 -11.09375 L 49.0625 0 L 3.65625 0 L 3.65625 -11.09375 L 8.90625 -11.09375 C 11.726562 -11.09375 13.820312 -11.285156 15.1875 -11.671875 C 16.550781 -12.066406 17.425781 -12.894531 17.8125 -14.15625 C 18.195312 -15.425781 18.390625 -17.375 18.390625 -20 L 18.390625 -77.390625 C 18.492188 -80.015625 18.328125 -81.957031 17.890625 -83.21875 C 17.453125 -84.488281 16.550781 -85.34375 15.1875 -85.78125 C 13.820312 -86.21875 11.726562 -86.390625 8.90625 -86.296875 L 3.65625 -86.296875 L 3.65625 -97.390625 L 48.921875 -97.390625 L 70.53125 -34.171875 L 94.625 -97.390625 L 138.125 -97.390625 L 138.125 -86.296875 L 132.578125 -86.296875 C 129.753906 -86.390625 127.632812 -86.21875 126.21875 -85.78125 C 124.8125 -85.34375 123.910156 -84.488281 123.515625 -83.21875 C 123.128906 -81.957031 122.9375 -80.015625 122.9375 -77.390625 L 122.9375 -20 C 122.9375 -17.375 123.128906 -15.425781 123.515625 -14.15625 C 123.910156 -12.894531 124.8125 -12.066406 126.21875 -11.671875 C 127.632812 -11.285156 129.753906 -11.09375 132.578125 -11.09375 L 138.125 -11.09375 L 138.125 0 Z M 88.046875 0 "/></g></g></g></g><g fill="#ffffff" fill-opacity="1"><g transform="translate(141.688873, 98.312771)"><g><path d="M 22.34375 -19.125 C 25.351562 -19.125 27.90625 -18.078125 30 -15.984375 C 32.09375 -13.890625 33.140625 -11.335938 33.140625 -8.328125 C 33.140625 -5.304688 32.09375 -2.75 30 -0.65625 C 27.90625 1.4375 25.398438 2.484375 22.484375 2.484375 C 19.460938 2.484375 16.878906 1.414062 14.734375 -0.71875 C 12.597656 -2.863281 11.53125 -5.492188 11.53125 -8.609375 C 11.53125 -11.429688 12.597656 -13.890625 14.734375 -15.984375 C 16.878906 -18.078125 19.414062 -19.125 22.34375 -19.125 Z M 22.34375 -19.125 "/></g></g></g><g clip-path="url(#e2f0a09cc2)"><g fill="#ffffff" fill-opacity="1"><g transform="translate(186.663975, 98.312771)"><g><path d="M 2.921875 -86.296875 L 2.921875 -97.390625 L 53.4375 -97.390625 L 53.4375 -86.296875 L 47.15625 -86.296875 C 44.332031 -86.390625 42.238281 -86.21875 40.875 -85.78125 C 39.519531 -85.34375 38.644531 -84.488281 38.25 -83.21875 C 37.863281 -81.957031 37.671875 -80.015625 37.671875 -77.390625 L 37.671875 -30.8125 C 37.671875 -26.71875 38.007812 -23.625 38.6875 -21.53125 C 39.375 -19.4375 40.546875 -17.660156 42.203125 -16.203125 C 45.898438 -12.992188 50.863281 -11.390625 57.09375 -11.390625 C 63.707031 -11.390625 69.0625 -13.140625 73.15625 -16.640625 C 74.8125 -18.109375 76.003906 -19.910156 76.734375 -22.046875 C 77.460938 -24.191406 77.828125 -27.113281 77.828125 -30.8125 L 77.828125 -77.390625 C 77.921875 -80.015625 77.75 -81.957031 77.3125 -83.21875 C 76.875 -84.488281 75.972656 -85.34375 74.609375 -85.78125 C 73.242188 -86.21875 71.101562 -86.390625 68.1875 -86.296875 L 62.5 -86.296875 L 62.5 -97.390625 L 107.609375 -97.390625 L 107.609375 -86.296875 L 103.234375 -86.296875 C 100.410156 -86.390625 98.289062 -86.21875 96.875 -85.78125 C 95.46875 -85.34375 94.566406 -84.488281 94.171875 -83.21875 C 93.785156 -81.957031 93.59375 -80.015625 93.59375 -77.390625 L 93.59375 -30.8125 C 93.59375 -20.101562 90.671875 -12.070312 84.828125 -6.71875 C 81.617188 -3.695312 77.429688 -1.335938 72.265625 0.359375 C 67.109375 2.066406 61.414062 2.921875 55.1875 2.921875 C 43.707031 2.921875 34.460938 0.144531 27.453125 -5.40625 C 23.847656 -8.226562 21.242188 -11.632812 19.640625 -15.625 C 18.035156 -19.613281 17.234375 -24.675781 17.234375 -30.8125 L 17.234375 -77.390625 C 17.328125 -80.015625 17.15625 -81.957031 16.71875 -83.21875 C 16.28125 -84.488281 15.378906 -85.34375 14.015625 -85.78125 C 12.648438 -86.21875 10.507812 -86.390625 7.59375 -86.296875 Z M 2.921875 -86.296875 "/></g></g></g></g></g></g></svg>