<svg xmlns="http://www.w3.org/2000/svg" xmlns:xlink="http://www.w3.org/1999/xlink" width="800" zoomAndPan="magnify" viewBox="0 0 600 449.999984" height="600" preserveAspectRatio="xMidYMid meet" version="1.0"><defs><g/><clipPath id="8f7620f119"><path d="M 44 0 L 556 0 L 556 450 L 44 450 Z M 44 0 " clip-rule="nonzero"/></clipPath><clipPath id="5ca55beb55"><path d="M 183.480469 -170.277344 L 695.277344 108.484375 L 416.515625 620.277344 L -95.277344 341.515625 Z M 183.480469 -170.277344 " clip-rule="nonzero"/></clipPath><clipPath id="cf6746a05f"><path d="M 439.378906 -30.898438 L 555.898438 364.378906 L 160.621094 480.898438 L 44.101562 85.621094 Z M 439.378906 -30.898438 " clip-rule="nonzero"/></clipPath><clipPath id="c5c12fd021"><path d="M 0 0 L 512 0 L 512 450 L 0 450 Z M 0 0 " clip-rule="nonzero"/></clipPath><clipPath id="41e0581f37"><path d="M 139.480469 -170.277344 L 651.277344 108.484375 L 372.515625 620.277344 L -139.277344 341.515625 Z M 139.480469 -170.277344 " clip-rule="nonzero"/></clipPath><clipPath id="4ef4102642"><path d="M 395.378906 -30.898438 L 511.898438 364.378906 L 116.621094 480.898438 L 0.101562 85.621094 Z M 395.378906 -30.898438 " clip-rule="nonzero"/></clipPath><clipPath id="ca202075b5"><rect x="0" width="512" y="0" height="450"/></clipPath><clipPath id="3fbdc4f891"><rect x="0" width="470" y="0" height="450"/></clipPath></defs><g clip-path="url(#8f7620f119)"><g clip-path="url(#5ca55beb55)"><g clip-path="url(#cf6746a05f)"><g transform="matrix(1, 0, 0, 1, 44, 0)"><g clip-path="url(#ca202075b5)"><g clip-path="url(#c5c12fd021)"><g clip-path="url(#41e0581f37)"><g clip-path="url(#4ef4102642)"><path fill="#137dc3" d="M 139.480469 -170.277344 L 651.277344 108.484375 L 372.515625 620.277344 L -139.277344 341.515625 Z M 139.480469 -170.277344 " fill-opacity="1" fill-rule="nonzero"/></g></g></g></g></g></g></g></g><g transform="matrix(1, 0, 0, 1, 71, 0)"><g clip-path="url(#3fbdc4f891)"><g fill="#00aaff" fill-opacity="1"><g transform="translate(29.506961, 295.192998)"><g><path d="M 234.34375 78.375 L 270.328125 -31.453125 L 188.671875 39.03125 L 152.921875 27.078125 L 128.84375 -74.578125 L 93.453125 31.25 L 19.59375 6.546875 L 100.046875 -233.984375 L 166.6875 -211.6875 L 202.171875 -57.3125 L 321.3125 -159.96875 L 387.984375 -137.671875 L 308.234375 103.09375 Z M 234.34375 78.375 "/></g></g></g></g></g></svg>